<svg width="22" height="20" fill="none" xmlns="http://www.w3.org/2000/svg"><path d="M19.739 5.112c.014.213.014.426.014.64 0 6.502-4.537 13.994-12.83 13.994-2.554 0-4.927-.807-6.923-2.208.363.046.712.061 1.089.061 2.108 0 4.048-.777 5.598-2.101-1.983-.046-3.644-1.462-4.216-3.412.279.046.558.076.851.076.405 0 .81-.06 1.187-.167C2.443 11.538.893 9.558.893 7.168v-.061a4.26 4.26 0 002.038.624C1.717 6.848.921 5.341.921 3.635c0-.914.224-1.752.614-2.483 2.22 2.985 5.556 4.934 9.297 5.148a6.037 6.037 0 01-.111-1.127c0-2.711 2.01-4.92 4.509-4.92 1.298 0 2.47.595 3.294 1.554A8.442 8.442 0 0021.386.62c-.335 1.142-1.047 2.102-1.982 2.711A8.453 8.453 0 0022 2.569a10.22 10.22 0 01-2.261 2.543z" fill="#2E2E2E"/></svg>